# xmcd
#
# Track frame offsets:
#	150
#	19563
#	36694
#	55799
#	86281
#	109457
#	128644
#	156126
#	183004
#	200995
#
# Disc length: 3193 seconds
#
# Revision: 1
# Processed by: cddbd v1.5.2PL0 Copyright (c) Steve Scherf et al.
# Submitted via: audiograbber 1.83.01
#
DISCID=820c770a
DTITLE=Gonzales, Tino - Funky Tortillas
DYEAR=2009
DGENRE=Blues
TTITLE0=Funky Tortillas
TTITLE1=How Lucky Are We?
TTITLE2=I Ain´t Gonna Pray
TTITLE3=Cloak Of Misery
TTITLE4=We All Lose
TTITLE5=The Last Time
TTITLE6=Trying To Stop Thinking About You
TTITLE7=Da Boy Can Play
TTITLE8=We Gonna Paint The Town Red
TTITLE9=Lord My Friend
EXTD=
EXTT0=
EXTT1=
EXTT2=
EXTT3=
EXTT4=
EXTT5=
EXTT6=
EXTT7=
EXTT8=
EXTT9=
PLAYORDER=
